<svg xmlns="http://www.w3.org/2000/svg" viewBox="0 0 400 300" width="406" height="306" class="illustration styles_illustrationTablet__1DWOa"><g id="_319_rocket_boy_outline" data-name="#319_rocket_boy_outline"><path d="M157.64,179.08l-30,56.5a6.59,6.59,0,0,0-.77,3.07h0a6.54,6.54,0,0,0,8.63,6.2L158.8,237Z" fill="#68e1fd"></path><path d="M133.38,246.2a7.55,7.55,0,0,1-7.52-7.55,7.56,7.56,0,0,1,.89-3.54l30-56.5a1,1,0,0,1,1.89.45L159.8,237a1,1,0,0,1-.68,1l-23.31,7.83A7.59,7.59,0,0,1,133.38,246.2ZM156.72,183l-28.21,53.1a5.63,5.63,0,0,0-.65,2.6,5.55,5.55,0,0,0,7.31,5.26l22.62-7.6Z" fill="#093f68"></path><path d="M242.36,179.08l30,56.5a6.59,6.59,0,0,1,.77,3.07h0a6.54,6.54,0,0,1-8.63,6.2L241.2,237Z" fill="#68e1fd"></path><path d="M266.62,246.2a7.59,7.59,0,0,1-2.43-.4L240.88,238a1,1,0,0,1-.68-1l1.16-57.94a1,1,0,0,1,1.89-.45l30,56.5a7.53,7.53,0,0,1-2.25,9.67A7.48,7.48,0,0,1,266.62,246.2Zm-24.41-9.89,22.62,7.6a5.55,5.55,0,0,0,7.31-5.26,5.63,5.63,0,0,0-.65-2.6L243.28,183Z" fill="#093f68"></path><path d="M255.38,140.54c0,27.57-12.39,97.33-12.39,97.33H157s-12.39-69.76-12.39-97.33a98.05,98.05,0,0,1,18-57.39,113.7,113.7,0,0,1,32.53-30.64,9.28,9.28,0,0,1,9.74,0A113.7,113.7,0,0,1,237.4,83.15,98.05,98.05,0,0,1,255.38,140.54Z" fill="#68e1fd"></path><path d="M243,238.87H157a1,1,0,0,1-1-.83c-.13-.69-12.41-70.16-12.41-97.5a98.94,98.94,0,0,1,18.16-58A114.69,114.69,0,0,1,194.6,51.66a10.25,10.25,0,0,1,10.8,0,114.69,114.69,0,0,1,32.82,30.92,98.94,98.94,0,0,1,18.16,58c0,27.34-12.28,96.81-12.41,97.5A1,1,0,0,1,243,238.87Zm-85.14-2h84.3c1.39-8,12.23-70.78,12.23-96.33a97,97,0,0,0-17.8-56.81,112.56,112.56,0,0,0-32.23-30.37,8.26,8.26,0,0,0-8.7,0,112.56,112.56,0,0,0-32.23,30.37,97,97,0,0,0-17.8,56.81C145.62,166.09,156.46,228.92,157.85,236.87Z" fill="#093f68"></path><path d="M244.8,228.28H155.2a1,1,0,0,1,0-2h89.6a1,1,0,0,1,0,2Z" fill="#093f68"></path><polygon points="235.99 248.87 164.01 248.87 168.77 237.87 231.23 237.87 235.99 248.87" fill="#093f68"></polygon><path d="M236,249.87H164a1,1,0,0,1-.84-.45,1,1,0,0,1-.08-.95l4.76-11a1,1,0,0,1,.92-.6h62.46a1,1,0,0,1,.92.6l4.76,11a1,1,0,0,1-.08.95A1,1,0,0,1,236,249.87Zm-70.46-2h68.94l-3.9-9H169.42Z" fill="#093f68"></path><path d="M245.36,143.68A45.36,45.36,0,1,1,200,98.32,45.31,45.31,0,0,1,245.36,143.68Z" fill="#fff"></path><path d="M200,190a46.1,46.1,0,0,1-17-3.22,47,47,0,0,1-10.06-5.5,46.37,46.37,0,1,1,52,1.45,45.57,45.57,0,0,1-10.61,5A46.14,46.14,0,0,1,200,190Zm0-90.72a44.36,44.36,0,1,0,13.69,86.56,43.44,43.44,0,0,0,10.15-4.8A44.35,44.35,0,0,0,200,99.32Z" fill="#093f68"></path><path d="M200,189a45.14,45.14,0,0,1-26.48-8.53,16.4,16.4,0,0,1,11.12-9.36,16.67,16.67,0,0,1,4-.45l20.33.08a16,16,0,0,1,5.52,1,16.4,16.4,0,0,1,9.94,10.16,44.88,44.88,0,0,1-10.38,4.9A45.34,45.34,0,0,1,200,189Z" fill="#f56132"></path><path d="M200,190a46.1,46.1,0,0,1-17-3.22,47,47,0,0,1-10.06-5.5,1,1,0,0,1-.33-1.21,17.44,17.44,0,0,1,11.81-9.93,17.61,17.61,0,0,1,4.19-.48l20.32.08a17,17,0,0,1,5.87,1.05,17.48,17.48,0,0,1,10.53,10.78,1,1,0,0,1-.4,1.16A46.31,46.31,0,0,1,200,190Zm-25.22-9.87a44.29,44.29,0,0,0,48.38,1.34,15.48,15.48,0,0,0-9.06-8.8,15.09,15.09,0,0,0-5.19-.93l-20.32-.08a16.26,16.26,0,0,0-3.71.43A15.44,15.44,0,0,0,174.78,180.17Z" fill="#093f68"></path><path d="M229.62,144a19.72,19.72,0,0,0,.12-5.48c-1.11-11.57-7.51-20.31-16.45-27.17a2.17,2.17,0,0,0-1.62-.62,2.23,2.23,0,0,0-1.17.83,34,34,0,0,1-11.38,8,12.91,12.91,0,0,0-1.15-8.33,14.43,14.43,0,0,1-5.82,6.7c-2.06,1.23-4.4,1.93-6.58,3a24.06,24.06,0,0,0-12.28,14c-1.74,5.2-2.46,13.32,1.16,17.88a14.12,14.12,0,0,0,5.48,3.9c6.73,3,14.39,3.17,21.7,2.29,3.51-.42,6.89-1.28,10.37-1.51a22.81,22.81,0,0,0,10.55-3.54,15.6,15.6,0,0,0,7-9.52C229.57,144.23,229.6,144.09,229.62,144Z" fill="#725858"></path><path d="M194.42,160.39a36.32,36.32,0,0,1-14.89-2.84,14.85,14.85,0,0,1-5.86-4.19c-3.71-4.68-3.34-12.82-1.33-18.82A25.23,25.23,0,0,1,185.14,120c.86-.41,1.73-.76,2.58-1.1a27.61,27.61,0,0,0,3.92-1.82,13.39,13.39,0,0,0,5.41-6.23,1,1,0,0,1,.89-.61,1,1,0,0,1,.93.55,13.94,13.94,0,0,1,1.47,7.11,33,33,0,0,0,9.42-7,3.2,3.2,0,0,1,1.73-1.14,3.11,3.11,0,0,1,2.41.82c10.29,7.9,15.8,17,16.84,27.86a20.32,20.32,0,0,1-.14,5.76h0l-.08.42a16.65,16.65,0,0,1-7.42,10.16,24.08,24.08,0,0,1-11,3.69,55,55,0,0,0-6,.82c-1.41.25-2.88.5-4.36.68A61.57,61.57,0,0,1,194.42,160.39Zm3.44-46.78a15.49,15.49,0,0,1-5.19,5.15,29,29,0,0,1-4.2,2c-.82.33-1.67.68-2.47,1a23.2,23.2,0,0,0-11.76,13.4c-1.78,5.31-2.23,12.88,1,17a13,13,0,0,0,5.09,3.6c5.71,2.52,12.64,3.25,21.18,2.22,1.43-.18,2.87-.43,4.26-.67a58.37,58.37,0,0,1,6.17-.85A21.91,21.91,0,0,0,222,153a14.59,14.59,0,0,0,6.55-8.89l.08-.38a18.65,18.65,0,0,0,.11-5.2c-1-10.26-6.24-18.92-16.07-26.46-.41-.32-.68-.47-.83-.44s-.42.32-.62.53a34.87,34.87,0,0,1-11.72,8.26,1,1,0,0,1-1-.14,1,1,0,0,1-.35-1A11.83,11.83,0,0,0,197.86,113.61ZM229.62,144h0Z" fill="#093f68"></path><ellipse cx="224.91" cy="156.81" rx="6.78" ry="5.85" fill="#ffc9b0"></ellipse><path d="M224.91,163.66c-4.29,0-7.78-3.07-7.78-6.85s3.49-6.84,7.78-6.84,7.79,3.07,7.79,6.84S229.2,163.66,224.91,163.66Zm0-11.69c-3.19,0-5.78,2.17-5.78,4.84s2.59,4.85,5.78,4.85,5.79-2.18,5.79-4.85S228.1,152,224.91,152Z" fill="#093f68"></path><ellipse cx="175.09" cy="156.81" rx="6.78" ry="5.85" fill="#ffc9b0"></ellipse><path d="M175.09,163.66c-4.29,0-7.79-3.07-7.79-6.85s3.5-6.84,7.79-6.84,7.78,3.07,7.78,6.84S179.38,163.66,175.09,163.66Zm0-11.69c-3.19,0-5.79,2.17-5.79,4.84s2.6,4.85,5.79,4.85,5.78-2.18,5.78-4.85S178.28,152,175.09,152Z" fill="#093f68"></path><path d="M214.64,139.49a26.48,26.48,0,0,1-8.53-1.66,43.83,43.83,0,0,1-11.11-7c-2.21,5.14-8.33,8.16-14,10.75-1.21.56-2.79,1.09-3.87.37-1.17,4.29-1.2,9-1.2,13.4,0,11.3,10.78,20.47,24.07,20.47s24.07-9.17,24.07-20.47V139.5C220.94,139.49,217.76,139.64,214.64,139.49Z" fill="#ffc9b0"></path><path d="M200,176.87c-13.82,0-25.07-9.63-25.07-21.47,0-4.06,0-9.11,1.24-13.67a1,1,0,0,1,.62-.67,1,1,0,0,1,.9.11c.52.34,1.49.2,2.9-.45,6-2.73,11.48-5.56,13.49-10.24a1,1,0,0,1,1.54-.38,43.5,43.5,0,0,0,10.86,6.8,25.3,25.3,0,0,0,8.21,1.59h0c2,.1,4.11.07,6.13,0,1.09,0,2.16,0,3.26,0a1,1,0,0,1,1,1v15.9C225.07,167.24,213.83,176.87,200,176.87Zm-22.16-33.56a56,56,0,0,0-.91,12.09c0,10.73,10.35,19.47,23.07,19.47s23.07-8.74,23.07-19.47V140.5q-1.11,0-2.22,0c-2,0-4.18.06-6.26,0h0a27,27,0,0,1-8.85-1.74,42.38,42.38,0,0,1-10.4-6.32c-2.59,4.63-8.06,7.43-13.92,10.11A6.62,6.62,0,0,1,177.84,143.31Z" fill="#093f68"></path><path d="M224.59,151.73a2,2,0,0,1-2-2c0-10-10.2-18.22-22.75-18.22s-22.75,8.17-22.75,18.22a2,2,0,0,1-4,0c0-12.25,12-22.22,26.75-22.22s26.75,10,26.75,22.22A2,2,0,0,1,224.59,151.73Z" fill="#093f68"></path><ellipse cx="189.37" cy="137.62" rx="11.69" ry="8.06" transform="translate(-41.84 100.97) rotate(-27)" fill="#ffbc0e"></ellipse><path d="M186.17,147.54c-3.62,0-6.73-1.45-8.11-4.16-2.27-4.45,1-10.66,7.19-13.83a15.6,15.6,0,0,1,9-1.75,8,8,0,0,1,6.39,4.06h0a8,8,0,0,1-.47,7.57,15.7,15.7,0,0,1-6.72,6.27A16.31,16.31,0,0,1,186.17,147.54Zm6.41-17.85a14.27,14.27,0,0,0-6.42,1.64c-5.25,2.67-8.08,7.67-6.32,11.14s7.48,4.12,12.73,1.45a13.62,13.62,0,0,0,5.87-5.45,6,6,0,0,0,.45-5.7h0a6.07,6.07,0,0,0-4.88-3A11.09,11.09,0,0,0,192.58,129.69Z" fill="#093f68"></path><ellipse cx="187.36" cy="133.69" rx="11.69" ry="8.06" transform="translate(-40.27 99.63) rotate(-27)" fill="#fff"></ellipse><path d="M184.14,143.62a11.57,11.57,0,0,1-1.68-.11,8,8,0,0,1-6.4-4.06c-2.27-4.45.95-10.66,7.19-13.84a15.65,15.65,0,0,1,9-1.75,8,8,0,0,1,6.4,4.07h0a8,8,0,0,1-.47,7.56,15.59,15.59,0,0,1-6.72,6.27A16.34,16.34,0,0,1,184.14,143.62Zm6.44-17.87a14.4,14.4,0,0,0-6.42,1.64c-5.25,2.68-8.09,7.68-6.32,11.15a6.07,6.07,0,0,0,4.88,3,14.67,14.67,0,0,0,13.72-7,6.11,6.11,0,0,0,.45-5.71h0a6.1,6.1,0,0,0-4.88-3A9.63,9.63,0,0,0,190.58,125.75Z" fill="#093f68"></path><ellipse cx="212" cy="137.62" rx="8.06" ry="11.69" transform="translate(-6.87 264.04) rotate(-63)" fill="#ffbc0e"></ellipse><path d="M215.2,147.54a16.31,16.31,0,0,1-7.31-1.84c-6.24-3.18-9.47-9.39-7.2-13.84h0c2.27-4.45,9.19-5.49,15.43-2.31s9.46,9.38,7.19,13.83C221.93,146.09,218.82,147.54,215.2,147.54Zm-12.72-14.77c-1.77,3.47,1.06,8.47,6.31,11.15s11,2,12.74-1.45-1.07-8.47-6.32-11.14-11-2-12.73,1.44Z" fill="#093f68"></path><ellipse cx="214" cy="133.69" rx="8.06" ry="11.69" transform="translate(-2.27 263.68) rotate(-63)" fill="#fff"></ellipse><path d="M217.2,143.6a16.18,16.18,0,0,1-7.31-1.84,15.59,15.59,0,0,1-6.72-6.27,8,8,0,0,1-.47-7.56h0c2.27-4.46,9.19-5.49,15.42-2.32s9.46,9.39,7.19,13.84C223.93,142.16,220.83,143.6,217.2,143.6Zm-6.46-17.86c-2.85,0-5.23,1.07-6.26,3.09h0a6.11,6.11,0,0,0,.45,5.71A13.6,13.6,0,0,0,210.8,140c5.25,2.68,11,2,12.73-1.44s-1.07-8.47-6.32-11.15A14.47,14.47,0,0,0,210.74,125.74Zm-7.15,2.64h0Z" fill="#093f68"></path><circle cx="189.07" cy="154.47" r="2.09" fill="#093f68"></circle><circle cx="210.61" cy="154.47" r="2.09" fill="#093f68"></circle><path d="M199.83,162.5a13,13,0,0,1-2.1-.18,1,1,0,0,1,.35-2,10,10,0,0,0,2.69.09,16.6,16.6,0,0,0-1.72-4.49,1,1,0,0,1,1.78-.93c.93,1.8,2.41,5,1.77,6.45a1.44,1.44,0,0,1-1,.84A7.53,7.53,0,0,1,199.83,162.5Z" fill="#093f68"></path><path d="M199.84,169.89a6.59,6.59,0,0,1-6.58-6.58,1,1,0,0,1,2,0,4.58,4.58,0,1,0,9.16,0,1,1,0,0,1,2,0A6.59,6.59,0,0,1,199.84,169.89Z" fill="#093f68"></path><path d="M192.63,151.48h-9.69a1.59,1.59,0,1,1,0-3.18h9.69a1.59,1.59,0,1,1,0,3.18Z" fill="#093f68"></path><path d="M216.75,151.48h-9.7a1.59,1.59,0,1,1,0-3.18h9.7a1.59,1.59,0,0,1,0,3.18Z" fill="#093f68"></path><path d="M181.87,185.27s4.63-10.92,2-11.07-4,3.8-4,3.8.45-5.26-1.29-7.3c-1-1.23-8.67-2.2-9.4,1.75a6.76,6.76,0,0,0,1.88,6.19S176.82,183.41,181.87,185.27Z" fill="#ffc9b0"></path><path d="M181.87,186.27a1,1,0,0,1-.34-.06c-5.16-1.9-10.83-6.61-11.07-6.81a7.72,7.72,0,0,1-2.22-7.14,4.36,4.36,0,0,1,3.49-3.33c2.65-.71,6.58-.13,7.65,1.12a8.41,8.41,0,0,1,1.5,4.47,3.89,3.89,0,0,1,3.05-1.31,1.67,1.67,0,0,1,1.37.81c1.3,2.09-1.32,8.84-2.51,11.64A1,1,0,0,1,181.87,186.27Zm-7.59-15.65a7.5,7.5,0,0,0-2.29.32c-1.57.51-1.73,1.4-1.78,1.69a5.69,5.69,0,0,0,1.55,5.25,47,47,0,0,0,9.57,6.09c1.58-3.92,2.6-7.76,2.32-8.77-1.71.09-2.78,3.09-2.8,3.12a1,1,0,0,1-1.15.66,1,1,0,0,1-.79-1.06c.16-1.88,0-5.32-1-6.57A7.31,7.31,0,0,0,174.28,170.62Z" fill="#093f68"></path><path d="M211.9,188.45a1,1,0,0,1-1-1v-8.72a1,1,0,0,1,2,0v8.72A1,1,0,0,1,211.9,188.45Z" fill="#093f68"></path><path d="M200,190a1,1,0,0,1-1-1V175.87a1,1,0,0,1,2,0V189A1,1,0,0,1,200,190Z" fill="#093f68"></path><path d="M179.91,178s-2.9.73-3.48,1.39" fill="#ffc9b0"></path><path d="M176.42,180.4a1,1,0,0,1-.74-1.68c.69-.77,2.79-1.39,4-1.69a1,1,0,1,1,.49,1.94,11.25,11.25,0,0,0-3,1.09A1,1,0,0,1,176.42,180.4Z" fill="#093f68"></path><path d="M182.94,136.12a1,1,0,0,1-.52-1.85l7.49-4.6a1,1,0,1,1,1.05,1.71l-7.5,4.6A1,1,0,0,1,182.94,136.12Z" fill="#dfeaef"></path><path d="M213,138.53a1,1,0,0,1-.86-.49,1,1,0,0,1,.36-1.37l8.1-4.71a1,1,0,0,1,1,1.73l-8.1,4.71A1,1,0,0,1,213,138.53Z" fill="#dfeaef"></path><path d="M208.12,135.17a1,1,0,0,1-.47-1.88l3.57-1.86a1,1,0,1,1,.92,1.77l-3.56,1.86A1,1,0,0,1,208.12,135.17Z" fill="#dfeaef"></path><path d="M237.4,83.15H162.6a113.7,113.7,0,0,1,32.53-30.64,9.28,9.28,0,0,1,9.74,0A113.7,113.7,0,0,1,237.4,83.15Z" fill="#68e1fd"></path><path d="M237.4,84.15H162.6a1,1,0,0,1-.89-.54,1,1,0,0,1,.07-1A114.69,114.69,0,0,1,194.6,51.66a10.25,10.25,0,0,1,10.8,0,114.69,114.69,0,0,1,32.82,30.92,1,1,0,0,1,.07,1A1,1,0,0,1,237.4,84.15Zm-72.86-2h70.92a113,113,0,0,0-31.11-28.79,8.26,8.26,0,0,0-8.7,0A113,113,0,0,0,164.54,82.15Z" fill="#093f68"></path><path d="M200,195.14h0a3.05,3.05,0,0,1,3.06,2.89l2.37,42.33a3.24,3.24,0,0,1-3.24,3.38h-4.38a3.24,3.24,0,0,1-3.24-3.38L196.94,198A3.05,3.05,0,0,1,200,195.14Z" fill="#68e1fd"></path><path d="M202.19,244.74h-4.38a4.24,4.24,0,0,1-4.24-4.43L195.94,198a4.07,4.07,0,0,1,8.12,0l2.37,42.33a4.24,4.24,0,0,1-4.24,4.44ZM200,196.14a2.06,2.06,0,0,0-2.06,1.94l-2.37,42.33a2.24,2.24,0,0,0,2.24,2.33h4.38a2.24,2.24,0,0,0,2.24-2.34l-2.37-42.32A2.06,2.06,0,0,0,200,196.14Z" fill="#093f68"></path></g></svg>